<svg xmlns="http://www.w3.org/2000/svg" xmlns:xlink="http://www.w3.org/1999/xlink" width="338" height="311" version="1.1" viewBox="0 0 338 311"><title>gitlab</title><desc>Created with Sketch.</desc><g id="Page-1" fill="none" fill-rule="evenodd" stroke="none" stroke-width="1"><g id="gitlab" fill-rule="nonzero"><g id="g44" fill="#FC6D26"><path id="path46" d="M337.17,177.83 L318.26,119.71 L280.84,4.43 C279.956602,1.7925919 277.486423,0.0149148401 274.705,0.0149148401 C271.923577,0.0149148401 269.453398,1.7925919 268.57,4.43 L231.15,119.64 L106.82,119.64 L69.4,4.43 C68.5220965,1.78979642 66.0523353,0.00830812195 63.27,0.00830812195 C60.4876647,0.00830812195 58.0179035,1.78979642 57.14,4.43 L19.78,119.64 L0.87,177.83 C-0.853328917,183.12969 1.02714845,188.936572 5.53,192.22 L169,311 L332.44,192.22 C336.963325,188.951421 338.871954,183.144831 337.17,177.83"/></g><g id="g48" fill="#E24329" transform="translate(106.000000, 119.000000)"><polygon id="path50" points="63 191.91 63 191.91 125.16 .63 .87 .63"/></g><g id="g56" fill="#FC6D26" transform="translate(19.000000, 119.000000)"><polygon id="path58" points="150 191.91 87.82 .63 .82 .63"/></g><g id="g64" fill="#FCA326" transform="translate(0.000000, 119.000000)"><path id="path66" d="M19.75,0.69 L19.75,0.69 L0.84,58.81 C-0.883328917,64.1096898 0.997148451,69.9165716 5.5,73.2 L169,192 L19.75,0.69 Z"/></g><g id="g72" fill="#E24329" transform="translate(19.000000, 0.000000)"><path id="path74" d="M0.78,119.69 L87.89,119.69 L50.4,4.49 C49.5166016,1.8525919 47.046423,0.0749148401 44.265,0.0749148401 C41.483577,0.0749148401 39.0133984,1.8525919 38.13,4.49 L0.78,119.69 Z"/></g><g id="g76" fill="#FC6D26" transform="translate(169.000000, 119.000000)"><polygon id="path78" points="0 191.91 62.16 .63 149.3 .63"/></g><g id="g80" fill="#FCA326" transform="translate(169.000000, 119.000000)"><path id="path82" d="M149.24,0.69 L149.24,0.69 L168.15,58.81 C169.883261,64.1096795 168.000893,69.9224023 163.49,73.2 L0,191.91 L149.2,0.69 L149.24,0.69 Z"/></g><g id="g84" fill="#E24329" transform="translate(231.000000, 0.000000)"><path id="path86" d="M87.28,119.69 L0.18,119.69 L37.6,4.49 C38.4779035,1.84979642 40.9476647,0.0683081219 43.73,0.0683081219 C46.5123353,0.0683081219 48.9820965,1.84979642 49.86,4.49 L87.28,119.69 Z"/></g></g></g></svg>